<svg width="93" height="93" viewBox="0 0 93 93" fill="none" xmlns="http://www.w3.org/2000/svg">
<path d="M66.8437 56.4335C64.6551 60.328 61.2405 63.3899 57.1314 65.1428C53.0222 66.8956 48.449 67.2412 44.1231 66.1256C39.7973 65.01 35.9614 62.4959 33.2125 58.9744C30.4635 55.453 28.9556 51.1216 28.9233 46.6544C28.891 42.1871 30.3362 37.8344 33.034 34.2736C35.7317 30.7128 39.5308 28.1435 43.8401 26.9655C48.1494 25.7875 52.7272 26.0669 56.8612 27.7602C60.9952 29.4534 64.4537 32.4656 66.6984 36.3281L84.4062 26.1301C79.9202 18.3695 72.997 12.3075 64.7119 8.88573C56.4268 5.46399 47.2436 4.87403 38.5888 7.20748C29.9339 9.54093 22.2919 14.6672 16.8498 21.79C11.4076 28.9127 8.46992 37.6333 8.49306 46.5972C8.51619 55.5611 11.4988 64.2664 16.9777 71.361C22.4565 78.4556 30.1249 83.5423 38.7917 85.8311C47.4584 88.1198 56.6384 87.4825 64.9058 84.018C73.1731 80.5535 80.065 74.4559 84.5108 66.6723L66.8437 56.4335Z" fill="#659AD2"/>
</svg>
