<svg width="34" height="54" viewBox="0 0 34 54" fill="none" xmlns="http://www.w3.org/2000/svg">
<path d="M8.4375 0C6.19974 0 4.05363 0.941627 2.47129 2.61773C0.888952 4.29384 3.75622e-06 6.56713 3.75622e-06 8.9375C3.75622e-06 11.3079 0.888952 13.5812 2.47129 15.2573C4.05363 16.9334 6.19974 17.875 8.4375 17.875H16.875V0H8.4375Z" fill="#F24E1E"/>
<path d="M25.3125 17.875C27.5503 17.875 29.6964 16.9334 31.2787 15.2573C32.8611 13.5812 33.75 11.3079 33.75 8.9375C33.75 6.56713 32.8611 4.29384 31.2787 2.61773C29.6964 0.941627 27.5503 0 25.3125 0H16.875V17.875H25.3125Z" fill="#FF7262"/>
<path d="M8.4375 17.875C6.19974 17.875 4.05363 18.8166 2.47129 20.4927C0.888952 22.1688 3.75622e-06 24.4421 3.75622e-06 26.8125C3.75622e-06 29.1829 0.888952 31.4562 2.47129 33.1323C4.05363 34.8084 6.19974 35.75 8.4375 35.75H16.875V17.875H8.4375Z" fill="#A259FF"/>
<path d="M8.4375 35.75C6.76872 35.75 5.13742 36.2742 3.74988 37.2562C2.36234 38.2383 1.28088 39.6342 0.64227 41.2673C0.00365583 42.9004 -0.163435 44.6974 0.162128 46.4311C0.487691 48.1648 1.29128 49.7573 2.47129 51.0073C3.6513 52.2572 5.15471 53.1084 6.79143 53.4533C8.42814 53.7981 10.1246 53.6211 11.6664 52.9447C13.2081 52.2682 14.5259 51.1227 15.453 49.6529C16.3802 48.1831 16.875 46.4552 16.875 44.6875V35.75H8.4375Z" fill="#0ACF83"/>
<path d="M25.3125 36.75C29.9724 36.75 33.75 32.3008 33.75 26.8125C33.75 21.3242 29.9724 16.875 25.3125 16.875C20.6526 16.875 16.875 21.3242 16.875 26.8125C16.875 32.3008 20.6526 36.75 25.3125 36.75Z" fill="#1ABCFE" fill-opacity="0.8"/>
</svg>
