<svg width="110" height="110" viewBox="0 0 110 110" fill="none" xmlns="http://www.w3.org/2000/svg">
<path d="M43.6563 80.9874C43.6563 80.9874 39.9782 83.1255 46.2723 83.8508C52.9141 84.7871 59.6711 84.5005 66.2098 83.0052C67.8959 84.0178 69.6658 84.8838 71.5001 85.5937C52.6591 93.6683 28.8579 85.1262 43.6563 80.9908M41.3394 70.448C41.3394 70.448 37.2144 73.5005 43.5154 74.1537C52.0963 75.1754 60.7876 74.7583 69.2313 72.9196C70.3717 73.9856 71.7198 74.8048 73.1913 75.3258C50.411 81.9877 25.0354 75.8518 41.3394 70.4412" fill="#5382A1"/>
<path d="M60.7508 52.5731C61.3618 53.3097 61.8163 54.163 62.0866 55.081C62.357 55.999 62.4375 56.9625 62.3233 57.9126C62.2091 58.8628 61.9026 59.7797 61.4225 60.6075C60.9423 61.4353 60.2986 62.1566 59.5305 62.7275C59.5305 62.7275 71.3177 56.6431 65.9037 49.0222C60.8471 41.9169 56.9662 38.3831 77.9624 26.2109C77.9624 26.2109 45.0105 34.4403 60.7508 52.5731Z" fill="#F89820"/>
<path d="M85.6694 88.7802C85.6694 88.7802 88.3919 91.0214 82.6719 92.7574C71.7956 96.0505 37.4069 97.0474 27.8506 92.888C24.4131 91.3927 30.855 89.3199 32.8831 88.8868C33.9696 88.6214 35.0856 88.4966 36.2038 88.5155C32.3847 85.8239 11.5191 93.7989 25.606 96.078C64.0235 102.307 95.6347 93.2764 85.6694 88.7802ZM45.4128 59.5305C45.4128 59.5305 27.9194 63.6864 39.2253 65.1955C46.9301 65.7976 54.6731 65.7148 62.3632 64.948C67.2233 64.5067 72.0638 63.8702 76.8728 63.0402C75.3452 63.7053 73.8737 64.4928 72.4728 65.3949C54.701 70.063 20.3844 67.8905 30.25 63.1089C34.9418 60.724 40.136 59.4959 45.3991 59.5271M76.7938 77.0721C94.851 67.6877 86.5013 58.6711 80.6747 59.8846C79.9739 60.0153 79.2843 60.2003 78.6122 60.438C78.9952 59.8952 79.5332 59.4807 80.1556 59.2486C91.685 55.1958 100.55 71.2043 76.4328 77.543C76.5811 77.4074 76.7044 77.2468 76.7972 77.0686" fill="#5382A1"/>
<path d="M65.9038 6.5518C65.9038 6.5518 75.9035 16.5549 56.4198 31.9412C40.7929 44.2818 52.8551 51.3184 56.4198 59.3552C47.3001 51.1259 40.6073 43.8865 45.0966 37.1387C51.6863 27.2421 69.9463 22.4434 65.9141 6.54492" fill="#F89820"/>
<path d="M47.1867 102.499C64.5186 103.61 91.1385 101.884 91.7676 93.6821C91.7676 93.6821 90.5542 96.7759 77.4436 99.2612C62.9456 101.75 48.1499 101.982 33.5811 99.9487C33.5811 99.9487 35.7982 101.781 47.1901 102.513" fill="#5382A1"/>
</svg>
