<svg width="74" height="74" viewBox="0 0 74 74" fill="none" xmlns="http://www.w3.org/2000/svg">
<rect x="19.5471" y="26.5283" width="47.4717" height="41.8868" fill="#323330"/>
<path d="M4.625 4.625V69.375H69.375V4.625H4.625ZM39.3125 54.9219C39.3125 61.2249 35.5894 64.2976 30.1998 64.2976C25.332 64.2976 22.5064 61.777 21.0727 58.7346L26.0272 55.7356C26.9825 57.4309 27.7081 58.8647 29.7937 58.8647C31.528 58.8647 32.9531 58.0828 32.9531 55.0404V34.6875H39.3125V54.9219ZM53.6717 64.1531C48.022 64.1531 44.3711 61.6036 42.589 58.0828L47.5508 55.2109C48.8516 57.3413 50.5498 58.7606 53.5488 58.7606C56.0695 58.7606 57.5336 57.6448 57.5336 55.9061C57.5336 53.8205 56.0261 53.082 53.2439 51.8593L51.7234 51.206C47.3325 49.3386 44.4217 46.9914 44.4217 42.0355C44.4217 37.4726 47.8977 34.1397 53.3306 34.1397C57.1997 34.1397 59.979 35.3422 61.9808 38.863L57.2344 41.9141C56.1909 40.0453 55.0664 39.3125 53.3234 39.3125C51.5413 39.3125 50.4111 40.4427 50.4111 41.9141C50.4111 43.7395 51.5413 44.478 54.1486 45.6083L55.6691 46.2601C60.8419 48.4772 63.7542 50.7406 63.7542 55.8223C63.7556 61.3 59.4529 64.1531 53.6717 64.1531Z" fill="#F0DB4F"/>
</svg>
