<svg width="49" height="60" viewBox="0 0 49 60" fill="none" xmlns="http://www.w3.org/2000/svg">
<path d="M46.4344 13.1078L26.7021 0.649087C25.9933 0.223705 25.1916 0 24.3757 0C23.5598 0 22.7581 0.223705 22.0493 0.649087L2.31569 13.1065C1.60455 13.5653 1.01782 14.2094 0.61218 14.9766C0.206545 15.7438 -0.00428264 16.6082 6.59325e-05 17.4862V42.3676C-0.00420052 43.2462 0.20663 44.1111 0.612226 44.8789C1.01782 45.6467 1.6045 46.2916 2.31569 46.7513L7.4903 50.0043L7.5195 50.0217C10.1322 51.429 11.1326 51.429 12.2917 51.429C16.3719 51.429 18.9072 48.6491 18.9072 44.1732V20.0482C18.9096 19.7471 18.7984 19.4572 18.598 19.2422C18.3976 19.0272 18.1243 18.9047 17.8382 18.9015H14.997C14.7109 18.9047 14.4377 19.0272 14.2373 19.2422C14.0369 19.4572 13.9257 19.7471 13.9281 20.0482V44.1732C13.9384 44.5186 13.8638 44.8609 13.7114 45.167C13.5591 45.473 13.3341 45.7324 13.0585 45.92C12.3094 46.4011 11.2215 46.2996 9.99382 45.6327L5.03503 42.4906C5.01604 42.4769 5.00055 42.4586 4.98992 42.4371C4.97929 42.4157 4.97385 42.3918 4.97409 42.3676V17.8377C4.97491 17.8095 4.98213 17.7819 4.99517 17.7573C5.0082 17.7326 5.02666 17.7116 5.04899 17.696L24.3256 5.26666C24.34 5.25913 24.3558 5.25521 24.3719 5.25521C24.388 5.25521 24.4038 5.25913 24.4182 5.26666L43.7062 17.696C43.7282 17.7129 43.7459 17.735 43.7581 17.7606C43.7702 17.7862 43.7764 17.8144 43.776 17.843V42.3676C43.7765 42.393 43.7716 42.4181 43.7618 42.4412C43.7519 42.4643 43.7372 42.4848 43.7189 42.5013L24.4144 54.6166C24.3815 54.6286 24.3458 54.6286 24.3129 54.6166L19.3833 51.5346C19.2369 51.4339 19.0679 51.3758 18.8933 51.3662C18.7187 51.3565 18.5448 51.3958 18.3892 51.4798L18.3461 51.5065C16.9851 52.3552 16.6195 52.5757 15.3576 53.0595C15.1519 53.1384 14.6682 53.3268 14.6263 53.8307C14.5844 54.3346 15.044 54.6927 15.4528 54.9427L22.0417 59.2021C22.7437 59.6448 23.5466 59.8789 24.3649 59.8797H24.4385C25.2364 59.8665 26.017 59.6328 26.7021 59.2021L46.4344 46.7553C47.1453 46.2942 47.7315 45.6485 48.137 44.8801C48.5425 44.1118 48.7536 43.2466 48.7501 42.3676V17.4862C48.7541 16.6084 48.5431 15.7444 48.1375 14.9774C47.7319 14.2105 47.1453 13.5666 46.4344 13.1078Z" fill="#68A063"/>
<path d="M30.9615 38.231C26.2274 38.231 25.2181 36.8384 24.9185 34.5904C24.8848 34.3228 24.7609 34.0768 24.5693 33.8972C24.3778 33.7177 24.1314 33.6165 23.875 33.6121H21.3613C21.078 33.6184 20.8086 33.7426 20.6121 33.9575C20.4155 34.1724 20.3079 34.4605 20.3127 34.7588C20.3127 36.7074 20.9627 43.0678 30.9666 43.0678C34.0617 43.0678 36.6363 42.306 38.4098 40.8639C40.1834 39.4218 41.133 37.3235 41.133 34.823C41.133 29.8044 38.0226 28.4305 31.8971 27.5324C25.6701 26.6209 25.6701 26.1572 25.6701 25.1414C25.6701 24.4104 25.6701 22.6983 30.1718 22.6983C33.3749 22.6983 35.09 23.1247 35.6384 25.3713C35.687 25.6204 35.8149 25.8445 36.001 26.0066C36.1871 26.1687 36.4202 26.2591 36.6617 26.2627H39.1842C39.3329 26.2612 39.4795 26.2263 39.6144 26.1604C39.7492 26.0945 39.8692 25.9991 39.9663 25.8805C40.1602 25.6421 40.2569 25.3328 40.2354 25.0198C39.9091 20.2686 36.6096 17.8589 30.1756 17.8589C24.3282 17.8589 20.8382 20.6321 20.8382 25.2764C20.8382 30.3684 24.4551 31.8078 29.8887 32.4039C36.2364 33.0949 36.2364 34.1026 36.2364 34.9927C36.2402 36.38 35.693 38.231 30.9615 38.231Z" fill="#68A063"/>
</svg>
