<svg width="105" height="49" viewBox="0 0 105 49" fill="none" xmlns="http://www.w3.org/2000/svg">
<path d="M21.0002 16.3945C22.1566 16.2518 23.3303 16.335 24.4536 16.6392C25.5768 16.9434 26.6273 17.4626 27.544 18.1668C28.1347 19.059 28.5114 20.0704 28.6458 21.1252C28.7802 22.1801 28.6689 23.251 28.3203 24.2578C28.0135 26.7359 26.7887 29.018 24.8778 30.6718C22.5728 32.123 19.8491 32.8041 17.1152 32.6129H11.8651L15.0902 16.4275L21.0002 16.3945ZM0 49H8.62509L10.6689 38.7259H18.0452C20.7628 38.7965 23.4752 38.4537 26.0853 37.7095C28.2273 37.0125 30.1862 35.8624 31.8228 34.3411C34.6448 31.8526 36.5483 28.5223 37.2379 24.8669C37.7785 23.0468 37.8734 21.1278 37.5151 19.2651C37.1568 17.4024 36.3552 15.6484 35.1754 14.1452C33.7524 12.7651 32.0386 11.7056 30.1538 11.0407C28.2689 10.3759 26.2584 10.1218 24.2628 10.2961H7.71383L0 49ZM43.5642 0H52.1256L50.0518 10.2741H57.6681C61.1672 9.91688 64.6822 10.7868 67.587 12.7288C68.5489 13.7971 69.2064 15.0944 69.4935 16.4902C69.7805 17.886 69.6868 19.3311 69.222 20.6802L65.6445 38.6929H56.9819L60.3869 21.5682C60.623 20.9147 60.7072 20.2179 60.6332 19.5285C60.5592 18.8392 60.3291 18.1746 59.9594 17.5833C58.7181 16.7119 57.1838 16.3365 55.6693 16.5339H48.833L44.4267 38.7112H35.8466L43.5642 0ZM88.2722 16.3945C89.4285 16.2518 90.6023 16.335 91.7256 16.6392C92.8488 16.9434 93.8992 17.4626 94.816 18.1668C95.4067 19.059 95.7833 20.0704 95.9178 21.1252C96.0522 22.1801 95.9409 23.251 95.5923 24.2578C95.2855 26.7359 94.0607 29.018 92.1497 30.6718C89.8406 32.1261 87.1111 32.8073 84.3722 32.6129H79.1259L82.3434 16.4092L88.2722 16.3945ZM67.272 49H75.8971L77.9408 38.7259H85.3209C88.0436 38.7981 90.7611 38.4552 93.376 37.7095C95.5181 37.0125 97.477 35.8624 99.1136 34.3411C101.929 31.8499 103.825 28.5199 104.51 24.8669C105.05 23.0468 105.145 21.1278 104.787 19.2651C104.429 17.4024 103.627 15.6484 102.447 14.1452C101.024 12.7675 99.3102 11.7103 97.4261 11.0475C95.542 10.3846 93.5327 10.1319 91.5385 10.3071H74.9633L67.272 49Z" fill="#4F5B93"/>
</svg>
