<svg width="68" height="98" viewBox="0 0 68 98" fill="none" xmlns="http://www.w3.org/2000/svg">
<path d="M41.7031 6.9634C39.2342 6.3777 35.6203 6.10782 33.1673 6.12504C30.8681 6.12888 28.5731 6.4093 26.3062 6.9634C20.2314 8.49465 19.125 11.6911 19.125 17.5941V24.5H34V27.5625H14.2933C8.77361 27.5625 4.29385 37.0697 4.25002 48.8316V49C4.24811 51.0565 4.38735 53.1081 4.66572 55.125C5.89955 63.9833 9.74315 70.4375 14.2933 70.4375H17V60.1016C17 54.1106 19.7678 48.6268 24.3047 47.4496L25.6156 47.2142H41.7031C42.3788 47.218 43.0517 47.0892 43.7033 46.8314C45.193 46.2581 46.5087 44.9891 47.4445 43.2231C48.3804 41.4571 48.8834 39.2937 48.875 37.0716V17.5941C48.875 12.0586 45.5972 7.88407 41.7031 6.9634ZM25.8892 20.1934C25.3533 20.196 24.829 19.9693 24.3826 19.5419C23.9363 19.1145 23.5881 18.5057 23.3822 17.7927C23.1763 17.0797 23.1219 16.2947 23.226 15.5371C23.3301 14.7795 23.588 14.0836 23.9669 13.5375C24.3458 12.9914 24.8287 12.6198 25.3544 12.4698C25.88 12.3198 26.4248 12.3981 26.9195 12.6949C27.4142 12.9916 27.8366 13.4935 28.1332 14.1367C28.4298 14.7799 28.5871 15.5356 28.5853 16.3079C28.5854 16.8182 28.5158 17.3236 28.3804 17.7951C28.245 18.2666 28.0464 18.6951 27.796 19.0559C27.5456 19.4168 27.2483 19.703 26.9211 19.8981C26.5939 20.0933 26.2433 20.1937 25.8892 20.1934Z" fill="#306998"/>
<path d="M63.1231 41.5352C61.702 33.3793 58.0218 27.5625 53.7067 27.5625H51.3546V36.6447C51.3546 44.2187 47.9015 49.7025 43.686 50.6423C43.2602 50.7374 42.83 50.7854 42.3991 50.7858H26.3075C25.6249 50.7849 24.9451 50.9103 24.2848 51.1591C21.3217 52.2807 19.125 55.8332 19.125 60.4403V79.9198C19.125 85.4705 22.9952 88.7245 26.7923 90.315C31.3358 92.2195 36.2857 92.5641 41.723 90.315C45.3342 88.8278 48.875 85.8208 48.875 79.9198V73.5H34V70.4375H53.7067C57.6167 70.4375 61.0048 65.6657 62.6649 58.7024C63.394 55.5761 63.7606 52.2981 63.75 49C63.7537 46.4841 63.5432 43.9771 63.1231 41.5352ZM42.0365 77.3281C42.5723 77.3255 43.0967 77.5522 43.543 77.9796C43.9893 78.407 44.3375 79.0158 44.5434 79.7288C44.7494 80.4418 44.8037 81.2268 44.6996 81.9844C44.5955 82.742 44.3377 83.4379 43.9588 83.984C43.5799 84.5301 43.0969 84.9017 42.5713 85.0517C42.0456 85.2017 41.5009 85.1234 41.0062 84.8266C40.5114 84.5299 40.089 84.0281 39.7925 83.3848C39.4959 82.7416 39.3386 81.9859 39.3404 81.2137C39.3402 80.7033 39.4098 80.198 39.5453 79.7264C39.6807 79.2549 39.8793 78.8265 40.1297 78.4656C40.3801 78.1048 40.6773 77.8186 41.0045 77.6234C41.3317 77.4282 41.6824 77.3279 42.0365 77.3281Z" fill="#FFD43B"/>
</svg>
