<svg width="68" height="72" viewBox="0 0 68 72" fill="none" xmlns="http://www.w3.org/2000/svg">
<path d="M54.5408 25.4137C53.8617 25.168 53.1777 24.9393 52.4888 24.7274C52.603 24.2352 52.7084 23.7402 52.8049 23.2424C54.3588 15.2409 53.3428 8.79461 49.8751 6.67257C46.5548 4.63632 41.1095 6.75835 35.6163 11.8321C35.0762 12.3327 34.5472 12.8484 34.0292 13.379C33.6839 13.0265 33.3297 12.6815 32.9667 12.344C27.2093 6.91867 21.4386 4.63351 17.9748 6.76257C14.6545 8.80304 13.6677 14.8626 15.0663 22.4465C15.2061 23.1965 15.3633 23.9432 15.5377 24.6866C14.744 24.9249 13.957 25.1875 13.1777 25.4741C6.43609 27.9702 2.125 31.8838 2.125 35.9423C2.125 40.1357 6.75219 44.3404 13.782 46.8899C14.3522 47.0952 14.9277 47.286 15.5085 47.4623C15.3199 48.2582 15.153 49.063 15.0078 49.8768C13.6797 57.3299 14.7156 63.246 18.0293 65.2738C21.4519 67.3677 27.1934 65.2162 32.7901 60.0271C33.2328 59.6165 33.6755 59.1829 34.1182 58.7263C34.6778 59.2991 35.2533 59.8551 35.8448 60.3941C41.2635 65.3413 46.6145 67.3396 49.9229 65.3062C53.3428 63.2052 54.4545 56.849 53.0108 49.116C52.9001 48.5254 52.7726 47.9226 52.6283 47.3076C53.032 47.181 53.4274 47.0502 53.8143 46.9152C61.119 44.346 65.8777 40.192 65.8777 35.9465C65.875 31.8684 61.4258 27.9295 54.5408 25.4137ZM37.408 14.0118C42.1135 9.66507 46.5123 7.94945 48.5177 9.1757C50.652 10.4821 51.4821 15.7499 50.1407 22.6588C50.0522 23.1088 49.9565 23.5574 49.8538 24.0046C47.0457 23.3283 44.1981 22.851 41.3299 22.5759C39.6877 20.0712 37.8876 17.6868 35.9417 15.4391C36.4181 14.9498 36.9059 14.474 37.4053 14.0118H37.408ZM20.9485 39.4101C21.5249 40.5913 22.1274 41.758 22.7561 42.9102C23.3962 44.0859 24.0634 45.2441 24.7576 46.3851C22.7841 46.1579 20.8229 45.8232 18.882 45.3824C19.4451 43.453 20.1384 41.4491 20.9485 39.4101ZM20.9485 32.6137C20.1516 30.6182 19.477 28.6551 18.9231 26.7594C20.7427 26.3277 22.6817 25.9748 24.7031 25.7076C24.0258 26.8269 23.3741 27.9627 22.7481 29.1149C22.1221 30.2671 21.5209 31.4334 20.9445 32.6137H20.9485ZM22.3962 36.0126C23.2355 34.1591 24.1396 32.3413 25.1082 30.5591C26.076 28.7779 27.1061 27.0374 28.1988 25.3377C30.0953 25.1859 32.0397 25.1057 34.004 25.1057C35.9683 25.1057 37.9246 25.1859 39.8198 25.3391C40.9009 27.0351 41.9249 28.7695 42.8918 30.5423C43.8587 32.3151 44.7746 34.1245 45.6397 35.9704C44.7861 37.8304 43.8724 39.6557 42.8984 41.4463C41.9324 43.2276 40.9142 44.9732 39.8438 46.6832C37.9512 46.8238 35.9922 46.9012 34 46.9012C32.0078 46.9012 30.086 46.8351 28.228 46.7071C27.1274 45.0018 26.0888 43.2538 25.1122 41.4632C24.1356 39.6726 23.2289 37.8557 22.3922 36.0126H22.3962ZM45.2559 42.8905C45.8978 41.7112 46.514 40.5163 47.1046 39.306C47.9142 41.2496 48.6288 43.236 49.2455 45.2573C47.2817 45.7255 45.2961 46.0846 43.2969 46.333C43.9716 45.1996 44.6246 44.0521 45.2559 42.8905ZM47.078 32.6151C46.4901 31.4291 45.8788 30.2573 45.2439 29.0994C44.6241 27.9576 43.9782 26.8298 43.3062 25.716C45.3395 25.9888 47.2905 26.3516 49.1194 26.7946C48.5314 28.7697 47.8501 30.7123 47.078 32.6151ZM34.0305 17.5049C35.3567 19.0393 36.609 20.6435 37.7825 22.3115C35.2723 22.1849 32.7604 22.1849 30.2467 22.3115C31.4859 20.5762 32.7542 18.966 34.0305 17.5049ZM19.3455 9.26148C21.4784 7.95086 26.1946 9.82398 31.1658 14.5026C31.4832 14.8021 31.8033 15.1157 32.122 15.4405C30.1662 17.6879 28.3533 20.0702 26.6953 22.5716C23.8335 22.8447 20.9916 23.3144 18.1873 23.9779C18.0253 23.2879 17.8792 22.5932 17.7491 21.8938C16.5471 15.3927 17.3427 10.4919 19.3455 9.26148ZM16.2363 44.6779C15.7051 44.5176 15.1805 44.3437 14.6625 44.1562C11.5547 43.0312 8.98742 41.563 7.225 39.9641C5.64719 38.5312 4.84766 37.101 4.84766 35.9423C4.84766 33.4799 8.30875 30.3384 14.0808 28.2079C14.8059 27.9407 15.5373 27.6965 16.2748 27.4752C17.1321 30.3922 18.1703 33.2461 19.3827 36.0182C18.1558 38.8287 17.1048 41.7215 16.2363 44.6779ZM30.9958 57.8502C28.5215 60.1452 26.0432 61.7723 23.8584 62.5921C21.8955 63.3276 20.3323 63.3487 19.388 62.7707C17.3772 61.5402 16.5405 56.7885 17.6813 50.4154C17.8168 49.6654 17.9717 48.9154 18.1462 48.1654C20.9784 48.8114 23.849 49.2526 26.7378 49.4859C28.412 52.0004 30.2399 54.3961 32.2097 56.6577C31.8139 57.0698 31.4088 57.4663 30.9958 57.8502ZM34.1062 54.5849C32.8153 53.107 31.527 51.4715 30.2706 49.7137C31.4916 49.7643 32.7347 49.7896 34 49.7896C35.2989 49.7896 36.5845 49.7601 37.8516 49.6996C36.6823 51.3944 35.4322 53.0249 34.1062 54.5849ZM50.6441 58.6054C50.2642 60.7766 49.5005 62.2251 48.5563 62.8045C46.5468 64.0391 42.2503 62.4346 37.6178 58.2032C37.0866 57.7195 36.5553 57.2006 36.0148 56.6563C37.9462 54.3859 39.7313 51.9805 41.3578 49.4563C44.2627 49.1957 47.1471 48.7235 49.9906 48.0431C50.1208 48.5999 50.2359 49.1455 50.3359 49.6799C50.9748 53.0971 51.0664 56.188 50.6441 58.6054ZM52.955 44.1716C52.607 44.294 52.2484 44.4121 51.8845 44.5274C50.9929 41.5967 49.9142 38.7336 48.6559 35.9577C49.867 33.2189 50.9035 30.3973 51.7584 27.5118C52.4105 27.7129 53.044 27.9238 53.6536 28.1474C59.5531 30.3018 63.1523 33.4912 63.1523 35.9423C63.1523 38.5579 59.2649 41.9526 52.955 44.1716Z" fill="#61DBFB"/>
<path d="M34 41.9836C35.1303 41.9875 36.2362 41.6362 37.1779 40.9741C38.1195 40.312 38.8543 39.369 39.2894 38.2645C39.7245 37.1599 39.8403 35.9434 39.622 34.7692C39.4038 33.5949 38.8613 32.5156 38.0634 31.668C37.2654 30.8203 36.2479 30.2425 35.1396 30.0075C34.0313 29.7726 32.882 29.8912 31.8374 30.3483C30.7928 30.8054 29.8998 31.5804 29.2714 32.5752C28.6431 33.5701 28.3076 34.7399 28.3076 35.9367C28.3061 36.7296 28.4521 37.5151 28.7374 38.2482C29.0227 38.9813 29.4416 39.6477 29.9702 40.2093C30.4989 40.7709 31.1269 41.2166 31.8183 41.5211C32.5098 41.8255 33.2511 41.9827 34 41.9836Z" fill="#61DBFB"/>
</svg>
