<svg width="66" height="66" viewBox="0 0 66 66" fill="none" xmlns="http://www.w3.org/2000/svg">
<g clip-path="url(#clip0_43_10)">
<path d="M62.9062 0H3.09375C1.38512 0 0 1.38512 0 3.09375V62.9062C0 64.6149 1.38512 66 3.09375 66H62.9062C64.6149 66 66 64.6149 66 62.9062V3.09375C66 1.38512 64.6149 0 62.9062 0Z" fill="#3178C6"/>
<path fill-rule="evenodd" clip-rule="evenodd" d="M38.2914 51.2882V58.5203C39.4632 59.1226 40.8488 59.5748 42.4487 59.8759C44.0485 60.1776 45.7346 60.3281 47.5072 60.3281C49.2347 60.3281 50.8758 60.1626 52.4303 59.8311C53.9854 59.4995 55.3482 58.9535 56.5202 58.1924C57.6917 57.4313 58.6193 56.4372 59.3031 55.209C59.9863 53.9813 60.3281 52.4633 60.3281 50.6554C60.3281 49.3446 60.1327 48.1958 59.7424 47.2089C59.3515 46.222 58.7885 45.3444 58.0522 44.576C57.3164 43.8076 56.4336 43.1183 55.4049 42.5081C54.3758 41.8979 53.2156 41.3216 51.9234 40.7792C50.9772 40.3875 50.1284 40.0071 49.3774 39.6379C48.6263 39.2688 47.9879 38.8921 47.4621 38.508C46.9364 38.1237 46.5308 37.7169 46.2454 37.2875C45.96 36.8582 45.8172 36.3722 45.8172 35.8299C45.8172 35.3326 45.9449 34.8844 46.2003 34.4852C46.4557 34.0859 46.8162 33.7431 47.2819 33.4568C47.7475 33.1706 48.3183 32.9484 48.9943 32.7902C49.6703 32.6319 50.4214 32.5529 51.2476 32.5529C51.8487 32.5529 52.4829 32.5981 53.1517 32.6885C53.8199 32.7788 54.4923 32.9182 55.1683 33.1066C55.8442 33.2949 56.5012 33.5322 57.14 33.8185C57.7784 34.1047 58.3677 34.4362 58.9086 34.8128V28.0555C57.8119 27.6336 56.6141 27.321 55.3147 27.1176C54.0153 26.9142 52.5247 26.8125 50.842 26.8125C49.1295 26.8125 47.5072 26.997 45.975 27.3662C44.4428 27.7353 43.0946 28.3116 41.9304 29.0951C40.7662 29.8786 39.8462 30.8767 39.1702 32.0896C38.4942 33.3024 38.1562 34.7526 38.1562 36.44C38.1562 38.5946 38.7759 40.4327 40.0152 41.9544C41.2545 43.4762 43.1359 44.7643 45.6595 45.819C46.651 46.2258 47.5748 46.6251 48.431 47.0168C49.2873 47.4085 50.0271 47.8153 50.6505 48.2372C51.2739 48.6591 51.7657 49.1186 52.1261 49.6158C52.487 50.113 52.667 50.6779 52.667 51.3108C52.667 51.778 52.5546 52.2112 52.3292 52.6102C52.1039 53.0093 51.762 53.3558 51.3039 53.6497C50.8457 53.9437 50.2749 54.1736 49.5914 54.3391C48.908 54.5047 48.1081 54.5877 47.1918 54.5877C45.6295 54.5877 44.0823 54.3128 42.55 53.7627C41.0179 53.213 39.5983 52.388 38.2914 51.2882ZM26.1435 33.2859H35.5781V27.3281H9.28125V33.2859H18.6697V59.8125H26.1435V33.2859Z" fill="white"/>
</g>
<defs>
<clipPath id="clip0_43_10">
<rect width="66" height="66" fill="white"/>
</clipPath>
</defs>
</svg>
